<svg id="a6ee7d17-eaef-470d-b426-dfc3785322fb" data-name="Layer 1" xmlns="http://www.w3.org/2000/svg" viewBox="0 0 260 38"><defs><style>.f16ff183-6b23-48ad-b9ed-23a2c6b08983{fill:#fff;}.eb4c8f22-f4c5-4b04-896b-d7f4449cd901{fill:#22bcb0;}</style></defs><title>Piramid_logo_white_n_green</title><path class="f16ff183-6b23-48ad-b9ed-23a2c6b08983" d="M16.15,0a12.84,12.84,0,0,1,6.36,1.5,10.09,10.09,0,0,1,4.08,4.11A12.25,12.25,0,0,1,28,11.53a13.17,13.17,0,0,1-1.54,6.38,11.2,11.2,0,0,1-4.41,4.49,13.41,13.41,0,0,1-6.78,1.65H5.44V38H0V0ZM5.44,18.88h9.35a9,9,0,0,0,4-.86,6.27,6.27,0,0,0,2.69-2.48,7.26,7.26,0,0,0,1-3.77,6.74,6.74,0,0,0-.89-3.52A5.85,5.85,0,0,0,19.06,6a8.47,8.47,0,0,0-3.79-.8H5.44Z"/><rect class="f16ff183-6b23-48ad-b9ed-23a2c6b08983" x="41.99" width="5.43" height="38.02"/><path class="f16ff183-6b23-48ad-b9ed-23a2c6b08983" d="M81.11,0a11.93,11.93,0,0,1,6,1.47,10.1,10.1,0,0,1,4,4,12,12,0,0,1,1.37,5.76,13,13,0,0,1-1,5,12.15,12.15,0,0,1-2.69,4.07,10.78,10.78,0,0,1-4,2.54L92.35,38h-6.1l-7.13-14.5H69.89V38H64.46V0ZM69.89,18.35h9.89a7.9,7.9,0,0,0,3.69-.85A6.15,6.15,0,0,0,86,15.09a7.08,7.08,0,0,0,.9-3.58,6.36,6.36,0,0,0-.85-3.34A5.68,5.68,0,0,0,83.7,6a7.36,7.36,0,0,0-3.44-.78H69.89Z"/><polygon class="f16ff183-6b23-48ad-b9ed-23a2c6b08983" points="189.8 0 189.8 38.02 184.36 38.02 184.36 7.58 173.99 35.37 167.79 35.37 157.42 7.58 157.42 38.02 151.99 38.02 151.99 0 159.94 0 170.89 29.67 181.82 0 189.8 0"/><rect class="f16ff183-6b23-48ad-b9ed-23a2c6b08983" x="206.83" width="5.44" height="38.02"/><path class="f16ff183-6b23-48ad-b9ed-23a2c6b08983" d="M242.87,0A17.58,17.58,0,0,1,252,2.28a15.1,15.1,0,0,1,5.94,6.54A22.72,22.72,0,0,1,260,18.93,23.36,23.36,0,0,1,258,29a15.18,15.18,0,0,1-5.9,6.65A17.33,17.33,0,0,1,242.85,38H229.3V0Zm-8.14,32.85h7.35A13.35,13.35,0,0,0,249,31.22a10,10,0,0,0,4.13-4.73A18.59,18.59,0,0,0,254.46,19a18.49,18.49,0,0,0-1.37-7.49A10,10,0,0,0,249,6.79a13.45,13.45,0,0,0-6.88-1.62h-7.35Z"/><polygon class="eb4c8f22-f4c5-4b04-896b-d7f4449cd901" points="125.29 0 119.9 0 132.97 38.02 138.36 38.02 125.29 0"/><rect class="eb4c8f22-f4c5-4b04-896b-d7f4449cd901" x="105.3" y="31.13" width="6.79" height="6.89"/></svg>