<?xml version="1.0" encoding="utf-8"?>
<!-- Generator: Adobe Illustrator 23.0.6, SVG Export Plug-In . SVG Version: 6.00 Build 0)  -->
<svg version="1.1" id="Layer_1" xmlns="http://www.w3.org/2000/svg" xmlns:xlink="http://www.w3.org/1999/xlink" x="0px" y="0px"
	 viewBox="0 0 33 33" style="enable-background:new 0 0 33 33;" xml:space="preserve">
<style type="text/css">
	.st0{fill-rule:evenodd;clip-rule:evenodd;fill:#181616;}
</style>
<path class="st0" d="M16.5,0.8C7.4,0.8,0,8.2,0,17.3C0,24.6,4.7,30.8,11.3,33c0.8,0.2,1.1-0.4,1.1-0.8c0-0.4,0-1.4,0-2.8
	c-4.6,1-5.6-2.2-5.6-2.2C6.1,25.3,5,24.7,5,24.7c-1.5-1,0.1-1,0.1-1c1.7,0.1,2.5,1.7,2.5,1.7c1.5,2.5,3.9,1.8,4.8,1.4
	c0.1-1.1,0.6-1.8,1-2.2C9.8,24.2,6,22.8,6,16.5c0-1.8,0.6-3.3,1.7-4.4c-0.2-0.4-0.7-2.1,0.2-4.4c0,0,1.4-0.4,4.5,1.7
	c1.3-0.4,2.7-0.5,4.1-0.6c1.4,0,2.8,0.2,4.1,0.6c3.2-2.1,4.5-1.7,4.5-1.7c0.9,2.3,0.3,3.9,0.2,4.4c1.1,1.2,1.7,2.6,1.7,4.4
	c0,6.3-3.9,7.7-7.5,8.1c0.6,0.5,1.1,1.5,1.1,3.1c0,2.2,0,4,0,4.5c0,0.4,0.3,1,1.1,0.8C28.3,30.8,33,24.6,33,17.3
	C33,8.2,25.6,0.8,16.5,0.8z"/>
</svg>
