<?xml version="1.0" standalone="no"?>
<!DOCTYPE svg PUBLIC "-//W3C//DTD SVG 20010904//EN"
 "http://www.w3.org/TR/2001/REC-SVG-20010904/DTD/svg10.dtd">
<svg version="1.0" xmlns="http://www.w3.org/2000/svg"
 width="639.000000pt" height="639.000000pt" viewBox="0 0 639.000000 639.000000"
 preserveAspectRatio="xMidYMid meet">

<g transform="translate(0.000000,639.000000) scale(0.100000,-0.100000)"
fill="#000000" stroke="none">
<path d="M4475 3750 c-3 -5 -10 -46 -15 -90 -12 -107 -37 -194 -65 -224 -24
-26 -16 -25 -280 -47 -168 -13 -302 -34 -321 -50 -20 -17 -17 -56 6 -79 24
-24 19 -25 125 1 163 38 415 63 415 40 0 -5 -16 -51 -36 -103 -62 -157 -58
-318 6 -318 17 0 20 7 20 46 0 49 39 172 96 307 19 45 37 83 38 84 2 2 78 12
171 23 92 11 171 23 176 26 13 8 11 70 -3 82 -8 6 -32 7 -63 2 -27 -4 -92 -11
-144 -15 -81 -6 -93 -5 -88 8 3 8 20 65 37 126 28 98 30 116 20 142 -7 16 -21
34 -31 39 -23 13 -56 13 -64 0z"/>
<path d="M5581 3703 c-6 -27 -17 -86 -26 -133 -32 -178 -37 -184 -155 -184
-79 1 -136 20 -192 65 -31 26 -48 18 -48 -21 0 -84 53 -117 202 -126 51 -3 98
-7 104 -9 8 -3 3 -39 -18 -117 -38 -147 -48 -267 -23 -292 10 -9 27 -16 38
-14 18 3 23 16 38 118 26 179 63 302 94 314 9 3 91 15 183 26 240 29 313 39
323 46 16 9 10 32 -13 48 -28 20 -111 20 -283 1 -71 -8 -144 -15 -162 -15
l-32 0 19 68 c11 37 28 94 40 126 11 33 20 65 20 72 0 23 -51 74 -75 74 -19 0
-25 -8 -34 -47z"/>
<path d="M3158 3678 c-8 -7 -49 -77 -91 -155 -78 -147 -168 -293 -192 -313
-10 -9 -19 -8 -39 5 -40 26 -76 16 -111 -32 -16 -23 -41 -46 -55 -51 -14 -6
-50 -31 -80 -56 -59 -50 -66 -52 -105 -34 -19 8 -29 25 -41 67 -24 84 -38 101
-82 101 -28 0 -45 -7 -62 -25 -28 -30 -44 -31 -77 -5 -48 38 -75 27 -197 -83
-36 -32 -70 -56 -76 -52 -6 4 -8 24 -4 54 6 44 4 49 -25 74 -24 20 -39 25 -60
21 -16 -4 -32 -1 -35 5 -11 17 -55 13 -90 -8 -17 -11 -56 -45 -86 -76 -30 -31
-71 -65 -92 -76 -37 -19 -37 -19 -48 0 -5 11 -10 36 -10 56 0 78 -55 136 -114
121 -13 -3 -38 -17 -54 -31 -36 -30 -37 -30 -69 -5 -35 28 -67 25 -105 -9
l-33 -29 -33 29 c-22 20 -43 29 -67 29 -30 0 -40 -7 -75 -54 -23 -30 -47 -57
-55 -60 -10 -3 -27 14 -51 50 -47 70 -109 124 -145 124 -23 0 -28 -5 -34 -37
-10 -53 -31 -92 -79 -141 -81 -86 -124 -87 -105 -4 6 28 6 49 0 61 -13 24 -65
45 -94 37 -17 -4 -30 0 -42 14 -39 43 -101 33 -156 -27 -40 -42 -59 -87 -59
-135 0 -130 112 -174 216 -84 l38 33 49 -33 c91 -63 147 -40 280 116 23 26 41
40 46 34 5 -5 17 -38 26 -74 21 -81 28 -90 74 -90 31 0 45 8 85 50 26 28 54
50 62 50 15 0 18 -6 28 -52 8 -33 44 -59 72 -52 12 3 28 21 37 40 9 19 21 34
27 34 5 0 22 -18 37 -41 21 -32 31 -39 52 -37 21 2 34 18 71 88 25 47 51 85
59 85 14 0 23 -23 35 -98 13 -75 77 -97 164 -57 40 18 46 18 72 5 46 -24 74
-18 128 25 27 22 55 40 61 40 7 0 21 -16 32 -35 25 -41 46 -55 88 -55 24 0 40
12 82 60 29 33 60 60 69 60 10 0 24 -16 35 -40 10 -22 27 -42 38 -46 21 -7 25
-3 113 100 17 20 36 36 43 36 6 0 22 -24 35 -54 29 -65 61 -88 129 -94 42 -3
61 1 101 23 39 20 51 23 57 13 5 -7 9 -16 9 -21 0 -4 11 -12 25 -17 78 -30
181 93 296 353 51 116 100 188 78 117 -59 -200 -75 -327 -48 -397 26 -69 78
-90 133 -54 29 19 30 19 65 0 20 -10 48 -19 63 -19 55 0 137 102 138 171 0 15
9 38 20 52 11 14 20 29 20 34 0 4 -20 30 -45 57 -43 46 -48 48 -85 43 -60 -8
-90 -36 -146 -139 -37 -67 -56 -93 -70 -93 -31 0 -25 111 10 195 26 61 91 287
103 356 4 25 0 35 -22 53 -32 25 -36 25 -57 9z m187 -518 c10 -33 -4 -78 -33
-100 -23 -19 -27 -19 -35 -4 -13 23 0 74 25 101 26 28 35 29 43 3z m-569 -89
c-20 -39 -36 -48 -36 -21 0 24 18 61 34 72 18 12 19 -18 2 -51z m-986 34 c0
-9 -30 -65 -34 -65 -3 0 -12 -3 -22 -7 -15 -5 -16 -2 -10 23 4 16 14 35 23 42
17 12 43 16 43 7z m-1500 -29 c0 -17 -38 -66 -51 -66 -18 0 -21 30 -5 55 17
27 56 34 56 11z"/>
<path d="M4814 3279 c-43 -12 -93 -61 -100 -97 -5 -24 -16 -34 -53 -50 -25
-11 -74 -24 -109 -28 -56 -6 -62 -9 -62 -30 0 -29 44 -64 80 -64 16 0 57 9 91
20 l63 19 56 -27 c51 -25 66 -27 198 -30 156 -4 169 -10 138 -56 -25 -39 -81
-77 -149 -101 -47 -18 -58 -25 -44 -30 48 -20 198 28 258 82 67 61 72 131 12
170 -23 15 -49 18 -168 18 -77 0 -146 4 -154 9 -9 6 1 16 39 37 83 45 101 86
58 127 -43 39 -92 49 -154 31z m56 -94 c0 -12 -28 -35 -44 -35 -12 0 -6 38 7
43 23 10 37 7 37 -8z"/>
<path d="M5875 3195 c-80 -81 -121 -194 -91 -252 29 -57 77 -57 166 -3 35 22
67 36 71 32 3 -4 14 -38 23 -76 21 -87 56 -156 96 -190 34 -28 47 -31 69 -17
11 7 7 17 -21 50 -48 57 -62 108 -64 237 -1 61 -7 121 -13 133 -14 26 -52 36
-79 22 -32 -17 -38 -13 -34 23 3 25 -2 40 -17 55 -31 31 -65 26 -106 -14z m85
-120 c0 -18 -37 -48 -49 -40 -17 10 -13 43 6 53 20 12 43 5 43 -13z"/>
</g>
</svg>
