<?xml version="1.0" encoding="utf-8"?>
<!-- Generator: Adobe Illustrator 23.0.6, SVG Export Plug-In . SVG Version: 6.00 Build 0)  -->
<svg version="1.1" id="Layer_1" xmlns="http://www.w3.org/2000/svg" xmlns:xlink="http://www.w3.org/1999/xlink" x="0px" y="0px"
	 viewBox="0 0 612.2 110.1" style="enable-background:new 0 0 612.2 110.1;" xml:space="preserve">
<g transform="translate(0.000000,639.000000) scale(0.100000,-0.100000)">
	<path d="M4365.3,6369.4c-3-5-10-46-15-90c-12-107-37-194-65-224c-24-26-16-25-280-47c-168-13-302-34-321-50c-20-17-17-56,6-79
		c24-24,19-25,125,1c163,38,415,63,415,40c0-5-16-51-36-103c-62-157-58-318,6-318c17,0,20,7,20,46c0,49,39,172,96,307
		c19,45,37,83,38,84c2,2,78,12,171,23c92,11,171,23,176,26c13,8,11,70-3,82c-8,6-32,7-63,2c-27-4-92-11-144-15c-81-6-93-5-88,8
		c3,8,20,65,37,126c28,98,30,116,20,142c-7,16-21,34-31,39C4406.3,6382.4,4373.3,6382.4,4365.3,6369.4z"/>
	<path d="M5471.3,6322.4c-6-27-17-86-26-133c-32-178-37-184-155-184c-79,1-136,20-192,65c-31,26-48,18-48-21c0-84,53-117,202-126
		c51-3,98-7,104-9c8-3,3-39-18-117c-38-147-48-267-23-292c10-9,27-16,38-14c18,3,23,16,38,118c26,179,63,302,94,314
		c9,3,91,15,183,26c240,29,313,39,323,46c16,9,10,32-13,48c-28,20-111,20-283,1c-71-8-144-15-162-15h-32l19,68c11,37,28,94,40,126
		c11,33,20,65,20,72c0,23-51,74-75,74C5486.3,6369.4,5480.3,6361.4,5471.3,6322.4z"/>
	<path d="M3048.3,6297.4c-8-7-49-77-91-155c-78-147-168-293-192-313c-10-9-19-8-39,5c-40,26-76,16-111-32c-16-23-41-46-55-51
		c-14-6-50-31-80-56c-59-50-66-52-105-34c-19,8-29,25-41,67c-24,84-38,101-82,101c-28,0-45-7-62-25c-28-30-44-31-77-5
		c-48,38-75,27-197-83c-36-32-70-56-76-52s-8,24-4,54c6,44,4,49-25,74c-24,20-39,25-60,21c-16-4-32-1-35,5c-11,17-55,13-90-8
		c-17-11-56-45-86-76s-71-65-92-76c-37-19-37-19-48,0c-5,11-10,36-10,56c0,78-55,136-114,121c-13-3-38-17-54-31c-36-30-37-30-69-5
		c-35,28-67,25-105-9l-33-29l-33,29c-22,20-43,29-67,29c-30,0-40-7-75-54c-23-30-47-57-55-60c-10-3-27,14-51,50
		c-47,70-109,124-145,124c-23,0-28-5-34-37c-10-53-31-92-79-141c-81-86-124-87-105-4c6,28,6,49,0,61c-13,24-65,45-94,37
		c-17-4-30,0-42,14c-39,43-101,33-156-27c-40-42-59-87-59-135c0-130,112-174,216-84l38,33l49-33c91-63,147-40,280,116
		c23,26,41,40,46,34c5-5,17-38,26-74c21-81,28-90,74-90c31,0,45,8,85,50c26,28,54,50,62,50c15,0,18-6,28-52c8-33,44-59,72-52
		c12,3,28,21,37,40s21,34,27,34c5,0,22-18,37-41c21-32,31-39,52-37s34,18,71,88c25,47,51,85,59,85c14,0,23-23,35-98
		c13-75,77-97,164-57c40,18,46,18,72,5c46-24,74-18,128,25c27,22,55,40,61,40c7,0,21-16,32-35c25-41,46-55,88-55c24,0,40,12,82,60
		c29,33,60,60,69,60c10,0,24-16,35-40c10-22,27-42,38-46c21-7,25-3,113,100c17,20,36,36,43,36c6,0,22-24,35-54c29-65,61-88,129-94
		c42-3,61,1,101,23c39,20,51,23,57,13c5-7,9-16,9-21c0-4,11-12,25-17c78-30,181,93,296,353c51,116,100,188,78,117
		c-59-200-75-327-48-397c26-69,78-90,133-54c29,19,30,19,65,0c20-10,48-19,63-19c55,0,137,102,138,171c0,15,9,38,20,52s20,29,20,34
		c0,4-20,30-45,57c-43,46-48,48-85,43c-60-8-90-36-146-139c-37-67-56-93-70-93c-31,0-25,111,10,195c26,61,91,287,103,356
		c4,25,0,35-22,53C3073.3,6313.4,3069.3,6313.4,3048.3,6297.4z M3235.3,5779.4c10-33-4-78-33-100c-23-19-27-19-35-4
		c-13,23,0,74,25,101C3218.3,5804.4,3227.3,5805.4,3235.3,5779.4z M2666.3,5690.4c-20-39-36-48-36-21c0,24,18,61,34,72
		C2682.3,5753.4,2683.3,5723.4,2666.3,5690.4z M1680.3,5724.4c0-9-30-65-34-65c-3,0-12-3-22-7c-15-5-16-2-10,23c4,16,14,35,23,42
		C1654.3,5729.4,1680.3,5733.4,1680.3,5724.4z M180.3,5695.4c0-17-38-66-51-66c-18,0-21,30-5,55
		C141.3,5711.4,180.3,5718.4,180.3,5695.4z"/>
	<path d="M4704.3,5898.4c-43-12-93-61-100-97c-5-24-16-34-53-50c-25-11-74-24-109-28c-56-6-62-9-62-30c0-29,44-64,80-64
		c16,0,57,9,91,20l63,19l56-27c51-25,66-27,198-30c156-4,169-10,138-56c-25-39-81-77-149-101c-47-18-58-25-44-30
		c48-20,198,28,258,82c67,61,72,131,12,170c-23,15-49,18-168,18c-77,0-146,4-154,9c-9,6,1,16,39,37c83,45,101,86,58,127
		C4815.3,5906.4,4766.3,5916.4,4704.3,5898.4z M4760.3,5804.4c0-12-28-35-44-35c-12,0-6,38,7,43
		C4746.3,5822.4,4760.3,5819.4,4760.3,5804.4z"/>
	<path d="M5765.3,5814.4c-80-81-121-194-91-252c29-57,77-57,166-3c35,22,67,36,71,32c3-4,14-38,23-76c21-87,56-156,96-190
		c34-28,47-31,69-17c11,7,7,17-21,50c-48,57-62,108-64,237c-1,61-7,121-13,133c-14,26-52,36-79,22c-32-17-38-13-34,23
		c3,25-2,40-17,55C5840.3,5859.4,5806.3,5854.4,5765.3,5814.4z M5850.3,5694.4c0-18-37-48-49-40c-17,10-13,43,6,53
		C5827.3,5719.4,5850.3,5712.4,5850.3,5694.4z"/>
</g>
</svg>
