<?xml version="1.0" encoding="utf-8"?>
<!-- Generator: Adobe Illustrator 23.0.6, SVG Export Plug-In . SVG Version: 6.00 Build 0)  -->
<svg version="1.1" id="Layer_1" xmlns="http://www.w3.org/2000/svg" xmlns:xlink="http://www.w3.org/1999/xlink" x="0px" y="0px"
	 viewBox="0 0 878.2 70.4" style="enable-background:new 0 0 878.2 70.4;" xml:space="preserve">
<style type="text/css">
	.st0{fill:#EE7203;}
</style>
<g id="Livello_4">
	<path d="M57.2,9.2C51.6,5,44.8,2.8,37.9,2.9c-9.7,0-18.1,3.2-24.8,9.4C6.5,18.3,2.8,26.8,3,35.7c-0.2,8.9,3.5,17.4,10.1,23.4
		c6.7,6.2,15.6,9.5,24.8,9.3c6.9,0.1,13.7-2.1,19.3-6.3V46.2c-5.7,5.3-12.2,8-19.3,8c-4.9,0.1-9.6-1.8-13.2-5.2
		c-7.2-7.3-7.2-19,0-26.4c3.5-3.5,8.2-5.4,13.2-5.3c7.1,0,13.6,2.7,19.3,8V9.2z"/>
	<rect x="71.4" y="3.9" width="16.3" height="63.8"/>
	<polygon points="161.4,3.9 145.8,3.9 145.8,37.4 102.6,2.1 102.6,67.6 118.1,67.6 118.1,33.8 161.4,69.4 	"/>
	<polygon points="220.5,42 220.5,28.9 192.2,28.9 192.2,18.4 222.5,18.4 222.5,3.9 175.9,3.9 175.9,67.6 223.3,67.6 223.3,53.4 
		192.2,53.4 192.2,42 	"/>
	<polygon points="282.5,3.9 231.3,3.9 231.3,18.5 248.9,18.5 248.9,67.6 265.2,67.6 265.2,18.5 282.5,18.5 	"/>
	<polygon points="336.7,42 336.7,28.9 308.4,28.9 308.4,18.4 338.7,18.4 338.7,3.9 292.1,3.9 292.1,67.6 339.5,67.6 339.5,53.4 
		308.4,53.4 308.4,42 	"/>
	<path d="M359.9,59.2c6.7,6.2,15.6,9.6,24.8,9.3c6.9,0.1,13.7-2.1,19.3-6.3v-16c-5.7,5.3-12.2,8-19.3,8c-4.9,0.1-9.6-1.8-13.2-5.2
		c-7.2-7.3-7.2-19,0-26.4c3.5-3.5,8.2-5.4,13.2-5.3c7.1,0,13.6,2.7,19.3,8V9.2c-5.6-4.1-12.3-6.3-19.3-6.3c-9.7,0-18,3.2-24.8,9.4
		c-6.6,6-10.2,14.5-10.1,23.4C349.7,44.7,353.4,53.2,359.9,59.2z"/>
	<path d="M459.8,59.1l4.2,8.5h16.8L445.9,0.3L411,67.6h16.8l4.2-8.5H459.8z M445.9,29.3l8.6,17.5h-17.2L445.9,29.3z"/>
	<polygon class="st0" points="490.4,68 561.2,68 561.2,1.5 525.8,36.8 525.5,36.5 490.4,1.5 	"/>
	<rect x="575.3" y="3.5" class="st0" width="17" height="64.5"/>
	<polygon class="st0" points="606.5,3.5 606.5,68 648.3,68 648.3,52.6 623.5,52.6 623.5,3.5 	"/>
	<polygon class="st0" points="690.3,-0.5 654.8,68 725.8,68 	"/>
	<polygon class="st0" points="792.6,3.5 776.3,3.5 776.3,36.6 733.1,1.3 733.1,68 749.4,68 749.4,34.6 792.6,70.2 	"/>
	<path class="st0" d="M839.4,2.6c-10,0-18.2,3.2-25.2,9.8c-13,12-13.9,32.2-1.9,45.3c0.6,0.7,1.3,1.3,1.9,1.9
		c7,6.5,15.3,9.7,25.2,9.7s18.2-3.2,25.2-9.7s10.5-14.5,10.5-23.6c0.1-9-3.7-17.6-10.5-23.6C857.7,5.8,849.4,2.6,839.4,2.6z"/>
</g>
</svg>
