<svg xmlns="http://www.w3.org/2000/svg" viewBox="0 0 1013.92 203.54">
  <defs>
    <style>
      .cls-1 {
        fill: #000;
      }

      .cls-2 {
        fill: #ee7203;
      }
    </style>
  </defs>
  <g id="Livello_4" data-name="Livello 4">
    <path class="cls-1"
      d="M125.05,76.1a31.71,31.71,0,0,0-19.29-6.27C96.05,69.83,87.71,73,81,79.27A30.81,30.81,0,0,0,70.93,102.7,30.81,30.81,0,0,0,81,126.12a35.43,35.43,0,0,0,24.76,9.35,31.65,31.65,0,0,0,19.29-6.28V113.08c-5.71,5.29-12.19,8-19.29,8a18.52,18.52,0,0,1-13.15-5.17,18.85,18.85,0,0,1,0-26.36,18.23,18.23,0,0,1,13.16-5.27c7.1,0,13.58,2.68,19.29,8Z" />
    <rect class="cls-1" x="139.29" y="70.77" width="16.29" height="63.76" />
    <polygon class="cls-1"
      points="229.26 70.77 213.72 70.77 213.72 104.28 170.47 68.97 170.47 134.53 186.01 134.53 186.01 100.73 229.26 136.31 229.26 70.77" />
    <polygon class="cls-1"
      points="288.35 108.87 288.35 95.77 260.07 95.77 260.07 85.28 290.41 85.28 290.41 70.77 243.78 70.77 243.78 134.53 291.16 134.53 291.16 120.3 260.07 120.3 260.07 108.87 288.35 108.87" />
    <polygon class="cls-1"
      points="350.33 70.77 299.21 70.77 299.21 85.37 316.81 85.37 316.81 134.53 333.1 134.53 333.1 85.37 350.33 85.37 350.33 70.77" />
    <polygon class="cls-1"
      points="404.54 108.87 404.54 95.77 376.27 95.77 376.27 85.28 406.6 85.28 406.6 70.77 359.98 70.77 359.98 134.53 407.35 134.53 407.35 120.3 376.27 120.3 376.27 108.87 404.54 108.87" />
    <path class="cls-1"
      d="M427.81,126.12a35.44,35.44,0,0,0,24.77,9.35,31.62,31.62,0,0,0,19.28-6.28V113.08c-5.71,5.29-12.19,8-19.28,8a18.55,18.55,0,0,1-13.16-5.17,18.85,18.85,0,0,1,0-26.36,18.27,18.27,0,0,1,13.17-5.27c7.09,0,13.57,2.68,19.28,8V76.1a31.68,31.68,0,0,0-19.28-6.27c-9.72,0-18.05,3.18-24.77,9.44a30.81,30.81,0,0,0-10.06,23.43A30.8,30.8,0,0,0,427.81,126.12Z" />
    <path class="cls-1"
      d="M527.67,126l4.21,8.52h16.84L513.81,67.25l-34.9,67.28h16.84L500,126ZM513.81,96.22l8.61,17.52h-17.2Z" />
    <polygon class="cls-2"
      points="558.25 134.9 629.03 134.9 629.03 68.39 593.64 103.69 593.38 103.43 558.25 68.39 558.25 134.9" />
    <rect class="cls-2" x="643.17" y="70.39" width="17.04" height="64.51" />
    <polygon class="cls-2"
      points="674.35 70.39 674.35 134.9 716.2 134.9 716.2 119.55 691.39 119.55 691.39 70.39 674.35 70.39" />
    <polygon class="cls-2" points="758.19 66.43 722.66 134.9 793.71 134.9 758.19 66.43" />
    <polygon class="cls-2"
      points="860.49 70.39 844.2 70.39 844.2 103.49 800.94 68.19 800.94 134.9 817.23 134.9 817.23 101.53 860.49 137.11 860.49 70.39" />
    <path class="cls-2"
      d="M907.31,69.46c-10,0-18.23,3.21-25.21,9.82a32.05,32.05,0,0,0,0,47.21c7,6.54,15.26,9.72,25.21,9.72s18.2-3.18,25.21-9.73S943,112,943,102.88a31.25,31.25,0,0,0-10.46-23.6C925.54,72.67,917.29,69.46,907.31,69.46Z" />
  </g>
</svg>