<svg xmlns="http://www.w3.org/2000/svg" viewBox="0 0 910.36 156.48"><defs><style>.cls-1{fill:#1e1e1c;}</style></defs><title>Risorsa 2</title><g id="Livello_2" data-name="Livello 2"><g id="Livello_1-2" data-name="Livello 1"><path class="cls-1" d="M771.36,154h24.9L751.44,36.3H724.88L679.73,154H704l10.26-28.12h46.86Zm-49.49-49.05,15.79-43.25,15.79,43.25Z"/><path class="cls-1" d="M0,154V36.3H74.36V58H22.91V83.85H68.72v21.09H23.07V154Z"/><path class="cls-1" d="M93.24,154V36.3h23.24V154Z"/><path class="cls-1" d="M334.64,154V105.18H283.35V154H260.44V36.3h22.91V83.61h51.29V36.3h23.07V154Z"/><path class="cls-1" d="M436.85,58v96H413.77V58H376.59V36.3H474V58Z"/><path class="cls-1" d="M535.24,36.3c22.9,0,35.85,13.44,35.85,31.7,0,12.12-7.3,21.91-17.1,25.23,11.46,2.82,20.75,13.28,20.75,27.89,0,19.09-14.27,32.87-36.35,32.87H492.91V36.3Zm-3.49,48.63c10.46,0,16.76-5.81,16.76-14.77s-5.8-14.61-16.93-14.61h-16.1V84.93Zm2.32,50c11.13,0,17.76-5.81,17.76-15.27,0-9.3-6-15.77-17.42-15.77H515.48v31Z"/><path class="cls-1" d="M886.29,154l-53.44-83.5V154H809.94V36.3h28.55l49,77.85V36.3h22.9V154Z"/><rect class="cls-1" x="592.16" width="73.7" height="17.42"/><path class="cls-1" d="M218.31,94.06H199.88V115h18.43v10c-5.42,5.27-13.28,9.12-24.15,9.12-18.93,0-36.52-13.78-36.52-38.85,0-26.72,18.59-39.33,36.18-39.33,15.26,0,24.22,7,28.94,15.18L240.88,57c-8.44-12.87-23.68-23.15-47.06-23.15-31.53,0-59.92,23.9-59.92,61.41s27.39,61.26,60.26,61.26c19.61,0,33.54-7.73,42.57-17.79a54.38,54.38,0,0,0,4.84-6.29V94.06Z"/><path class="cls-1" d="M592.16,154V36.3h73.7V57.88H615.07V89.35h46v20.42h-46v22.64h50.79V154Z"/></g></g></svg>