<?xml version="1.0" encoding="UTF-8" standalone="no"?>
<svg xmlns:dc="http://purl.org/dc/elements/1.1/" xmlns:cc="http://creativecommons.org/ns#" xmlns:rdf="http://www.w3.org/1999/02/22-rdf-syntax-ns#" xmlns:svg="http://www.w3.org/2000/svg" xmlns="http://www.w3.org/2000/svg" xmlns:sodipodi="http://sodipodi.sourceforge.net/DTD/sodipodi-0.dtd" xmlns:inkscape="http://www.inkscape.org/namespaces/inkscape" viewBox="0 0 744.62 181.12" version="1.1" id="svg42" sodipodi:docname="dn_positivo.svg" inkscape:version="1.0.1 (3bc2e813f5, 2020-09-07)">
	<metadata id="metadata46">
		<RDF>
			<Work rdf:about="">
				<format>
					image/svg+xml
				</format>
				<type rdf:resource="http://purl.org/dc/dcmitype/StillImage" />
				<title>
				</title>
			</Work>
		</RDF>
	</metadata>
	<namedview pagecolor="#ffffff" bordercolor="#666666" borderopacity="1" objecttolerance="10" gridtolerance="10" guidetolerance="10" inkscape:pageopacity="0" inkscape:pageshadow="2" inkscape:window-width="776" inkscape:window-height="480" id="namedview44" showgrid="false" inkscape:zoom="0.47198136" inkscape:cx="372.31" inkscape:cy="90.559998" inkscape:window-x="0" inkscape:window-y="0" inkscape:window-maximized="0" inkscape:current-layer="svg42" />
	<defs id="defs4">
		<style id="style2">
			.cls-1{fill:#3d6886;}.cls-2{fill:#b44b64;}.cls-3{fill:#322e4f;}.cls-4{fill:#d9564a;}
		</style>
	</defs>
	<g id="g946">
		<g id="g925">
			<path class="cls-1" d="m 89.34,114.86 a 24.09,24.09 0 0 1 -12.87,-4.55 l -38.2,53.85 c 23.25,16.5 49.24,21 76.69,13.31 L 97.19,114 l -0.37,0.06 a 24.11,24.11 0 0 1 -7.48,0.76" id="path6" />
			<path class="cls-2" d="m 66.41,89.32 a 24.39,24.39 0 0 1 1,-5.66 L 3.79,65.09 C -4.2,92.43 0.53,120 17.14,143.16 L 70.82,104.6 A 24.16,24.16 0 0 1 66.41,89.32" id="path8" />
			<path class="cls-3" d="m 85.67,66.9 v -0.08 a 176.45,176.45 0 0 1 19.91,-4.27 l 7.55,-14 L 133.4,10.8 A 90.42,90.42 0 0 0 11,47.6 80.51,80.51 0 0 0 3.79,65.09 L 67.41,83.66 A 24.28,24.28 0 0 1 85.67,66.9" id="path10" />
			<path class="cls-4" d="m 70.82,104.6 -53.67,38.56 v 0 0 0 a 90.33,90.33 0 0 0 21.09,20.95 l 38.2,-53.85 a 24.31,24.31 0 0 1 -5.65,-5.71" id="path12" />
			<path d="M 178.53,69 A 89.22,89.22 0 0 0 133.4,10.81 l -20.29,37.71 -7.55,14 c 26.81,-4.1 50,-0.72 73,6.49" id="path14" />
			<path d="m 159.57,88.46 a 9.06,9.06 0 1 1 8.73,9.37 9.06,9.06 0 0 1 -8.73,-9.37" id="path16" />
			<path d="m 96.18,86.9 a 11.3,11.3 0 1 1 10.9,11.7 11.31,11.31 0 0 1 -10.9,-11.7" id="path18" />
			<path d="m 177.92,113.79 -22.52,-8.38 a 38.21,38.21 0 0 0 -22.26,-0.54 L 97.2,114 v 0 l 17.8,63.46 a 90.58,90.58 0 0 0 62.45,-62.06 v 0 z" id="path20" />
		</g>
		<g id="g915">
			<path d="m 286.64,53.93 v 80.45 h -17.29 l -0.68,-10.73 a 20,20 0 0 1 -7.29,8.7 19.75,19.75 0 0 1 -11.13,3.16 q -11,0 -17.12,-7.68 -6.12,-7.68 -6.13,-21.47 0,-14 6.22,-21.81 6.22,-7.81 17.18,-7.8 a 18.33,18.33 0 0 1 10.28,2.83 19.62,19.62 0 0 1 6.78,7.79 V 53.93 Z m -22.32,64.12 q 2.78,-3.33 3.11,-9.66 v -4.52 q -0.35,-6.21 -3.11,-9.6 a 9.07,9.07 0 0 0 -7.4,-3.39 9.18,9.18 0 0 0 -7.85,3.73 q -2.77,3.72 -2.77,11.52 0,7.8 2.77,11.53 a 10,10 0 0 0 15.25,0.39 z" id="path22" />
			<path d="m 358.39,123 -1.47,10.73 a 15.57,15.57 0 0 1 -7.68,1.81 q -12.21,0 -14.58,-8.7 -5.09,8.7 -20.11,8.7 -8.48,0 -13,-3.61 -4.52,-3.61 -4.55,-10.54 a 14.76,14.76 0 0 1 5.15,-11.7 q 5.13,-4.45 16.89,-6.83 l 12.77,-2.49 v -2 a 8.53,8.53 0 0 0 -2.15,-6.11 7.74,7.74 0 0 0 -5.84,-2.26 11.35,11.35 0 0 0 -7,2 c -1.81,1.35 -3,3.58 -3.5,6.66 l -15.6,-4.52 a 18.93,18.93 0 0 1 8.14,-12.82 q 6.66,-4.58 18,-4.58 13.21,0 20.11,5.43 6.9,5.43 6.89,16.27 V 119 q 0,4.41 4.07,4.41 a 11.32,11.32 0 0 0 3.46,-0.41 z m -29.72,-2.09 a 6.79,6.79 0 0 0 3.17,-5.82 v -4.89 l -9.16,2.15 a 13.08,13.08 0 0 0 -5.14,2.2 4.58,4.58 0 0 0 -1.52,3.67 4.47,4.47 0 0 0 1.47,3.62 6.06,6.06 0 0 0 4.06,1.24 12.15,12.15 0 0 0 7.12,-2.2 z" id="path24" />
			<path d="m 407,131.22 a 24.1,24.1 0 0 1 -7.17,3.11 33.19,33.19 0 0 1 -8.76,1.18 q -10.07,0 -15.37,-4.29 -5.3,-4.29 -5.42,-13.79 V 91.56 h -9.72 V 77.88 h 9.72 V 65.23 l 19.21,-5.31 v 18 h 16.95 v 13.64 h -16.97 v 22.71 q 0,7.58 7.46,7.57 a 13.67,13.67 0 0 0 8.13,-2.49 z" id="path26" />
			<path d="m 473.2,123 -1.47,10.73 a 15.63,15.63 0 0 1 -7.68,1.81 q -12.21,0 -14.58,-8.7 -5.09,8.7 -20.11,8.7 -8.48,0 -13,-3.61 -4.52,-3.61 -4.52,-10.51 a 14.75,14.75 0 0 1 5.14,-11.7 q 5.14,-4.45 16.9,-6.83 l 12.76,-2.49 v -2 a 8.52,8.52 0 0 0 -2.14,-6.11 7.74,7.74 0 0 0 -5.88,-2.29 11.37,11.37 0 0 0 -7,2 c -1.8,1.35 -3,3.58 -3.5,6.66 l -15.59,-4.52 a 19,19 0 0 1 8.13,-12.82 q 6.68,-4.58 18,-4.58 13.23,0 20.12,5.43 6.89,5.43 6.89,16.27 V 119 c 0,2.94 1.35,4.41 4.07,4.41 A 11.32,11.32 0 0 0 473.2,123 Z m -29.72,-2.09 a 6.78,6.78 0 0 0 3.16,-5.82 v -4.89 l -9.15,2.15 a 13.08,13.08 0 0 0 -5.14,2.2 4.56,4.56 0 0 0 -1.53,3.67 4.47,4.47 0 0 0 1.47,3.62 6.11,6.11 0 0 0 4.07,1.24 12.15,12.15 0 0 0 7.12,-2.2 z" id="path28" />
			<path d="m 532.07,82 q 5.31,5.2 5.31,14.8 v 37.63 h -19.21 v -32.37 c 0,-3.84 -0.69,-6.57 -2.09,-8.19 a 7.39,7.39 0 0 0 -5.93,-2.43 9.36,9.36 0 0 0 -7.35,3.22 q -2.8,3.23 -2.8,9.89 v 29.83 H 480.77 V 77.88 H 498 l 0.56,10.85 a 19.47,19.47 0 0 1 7.69,-9 22.06,22.06 0 0 1 11.63,-3 q 8.87,0.02 14.19,5.27 z" id="path30" />
			<path d="m 551.9,69.13 q -2.65,-2.2 -2.65,-6.95 0,-4.75 2.65,-7.07 c 1.77,-1.47 4.62,-2.2 8.53,-2.2 3.91,0 6.77,0.73 8.54,2.2 1.77,1.47 2.65,3.83 2.65,7.07 0,3.24 -0.88,5.48 -2.65,6.95 -1.77,1.47 -4.62,2.2 -8.54,2.2 -3.92,0 -6.76,-0.74 -8.53,-2.2 z M 570,134.38 H 550.83 V 77.88 H 570 Z" id="path32" />
			<path d="m 635,82 q 5.31,5.2 5.31,14.8 v 37.63 h -19.2 v -32.37 c 0,-3.84 -0.69,-6.57 -2.09,-8.19 a 7.39,7.39 0 0 0 -5.93,-2.43 9.36,9.36 0 0 0 -7.35,3.22 q -2.82,3.23 -2.82,9.89 v 29.83 h -19.21 v -56.5 h 17.18 l 0.56,10.85 a 19.47,19.47 0 0 1 7.69,-9 22.06,22.06 0 0 1 11.63,-3 Q 629.7,76.75 635,82 Z" id="path34" />
			<path d="m 673,137.55 q 0,11.07 -5.65,16.1 -5.65,5.03 -16.27,5 -8.92,0 -14.81,-3.62 l 2.73,-12.4 a 10.45,10.45 0 0 0 7.12,2.26 7.49,7.49 0 0 0 5.7,-2.09 q 2,-2.09 2,-7 v -58 H 673 Z m -1.19,-82.38 c 1.85,1.51 2.77,3.84 2.77,7 0,3.16 -0.9,5.38 -2.71,6.89 -1.81,1.51 -4.67,2.26 -8.59,2.26 -3.92,0 -6.65,-0.75 -8.42,-2.26 -1.77,-1.51 -2.65,-3.8 -2.65,-6.89 0,-3.09 0.88,-5.5 2.65,-7 1.77,-1.5 4.58,-2.26 8.42,-2.26 3.84,0 6.72,0.75 8.51,2.26 z" id="path36" />
			<path d="m 744.62,123 -1.47,10.73 a 15.57,15.57 0 0 1 -7.68,1.81 q -12.21,0 -14.58,-8.7 -5.08,8.7 -20.11,8.7 -8.47,0 -13,-3.61 -4.53,-3.61 -4.52,-10.51 a 14.78,14.78 0 0 1 5.14,-11.7 q 5.15,-4.45 16.9,-6.83 l 12.77,-2.49 v -2 A 8.53,8.53 0 0 0 715.92,92.29 7.74,7.74 0 0 0 710,90 a 11.34,11.34 0 0 0 -7,2 c -1.81,1.35 -3,3.58 -3.51,6.66 L 683.9,94.14 a 18.93,18.93 0 0 1 8.14,-12.82 q 6.66,-4.58 18,-4.58 13.23,0 20.12,5.43 6.89,5.43 6.89,16.27 V 119 q 0,4.41 4.07,4.41 a 11.32,11.32 0 0 0 3.5,-0.41 z m -29.72,-2.09 a 6.79,6.79 0 0 0 3.17,-5.82 v -4.89 l -9.16,2.15 a 13.08,13.08 0 0 0 -5.14,2.2 4.55,4.55 0 0 0 -1.52,3.67 4.47,4.47 0 0 0 1.47,3.62 6.06,6.06 0 0 0 4.06,1.24 12.15,12.15 0 0 0 7.12,-2.2 z" id="path38" />
		</g>
	</g>
</svg>
