<svg version="1.1" xmlns="http://www.w3.org/2000/svg" xmlns:xlink="http://www.w3.org/1999/xlink">
  <path class="path1" d="M0 32v-32l15.604 20.634 15.644-20.554v31.881h-6.614v-12l-9.030 11.327-8.95-11.287v12h-6.653z">
  </path>
  <path class="path2"
    d="M36.436 23.168l6.337-10.218-7.921-12.792h7.723l4.119 6.535 4.079-6.535h7.762l-14.376 23.010h-7.723zM34.852 32v-6.574h23.129v6.574h-23.129z">
  </path>
  <path class="path3"
    d="M86.139 21.307c0 5.941-4.832 10.693-10.772 10.693h-13.188v-31.842h12.911c4.634 0 8.475 3.802 8.475 8.515 0 1.663-0.436 3.089-1.228 4.396 2.337 2.059 3.802 4.951 3.802 8.238zM68.752 6.772v3.762h6.257c1.069 0 1.901-0.832 1.901-1.861 0-1.069-0.832-1.901-1.901-1.901h-6.257zM75.327 25.426c2.337 0 4.158-1.782 4.158-4.119 0-2.257-1.822-4.119-4.119-4.119h-6.653v8.238h6.614z">
  </path>
  <path class="path4"
    d="M89.743 11.485c0-6.297 5.109-11.366 11.366-11.366s11.327 5.109 11.327 11.366c0 6.297-5.109 11.366-11.327 11.366-6.297 0.040-11.366-5.069-11.366-11.366zM112.436 32.040h-22.653v-6.693h22.653v6.693zM96.396 11.485c0 2.574 2.059 4.673 4.713 4.673 2.535 0 4.634-2.099 4.634-4.673 0-2.535-2.099-4.713-4.634-4.713-2.653 0-4.713 2.178-4.713 4.713z">
  </path>
  <path class="path5"
    d="M131.010 17.069c1.545 1.545 2.416 3.604 2.535 5.782 0.119 2.416-0.594 4.515-2.218 6.297-1.584 1.743-3.683 2.772-6.020 2.891-0.119 0.040-0.277 0.040-0.515 0.040-4.594 0-8.396-3.644-8.752-8.277-0.119-1.030 0.198-1.941 0.515-2.614 0.158-0.396 0.396-0.752 0.594-1.109l2.852-4.317-1.267-1.267c-1.465-1.505-2.337-3.446-2.455-5.505-0.119-2.218 0.594-4.356 2.139-6.020 1.465-1.703 3.564-2.693 5.743-2.812 3.208-0.158 6.099 1.426 7.683 4.040 0.198 0.277 0.436 0.673 0.594 1.069 0.317 0.673 0.554 1.703 0.594 2.931h-6.614c-0.158-0.832-0.871-1.545-1.861-1.386-0.475 0-0.911 0.158-1.188 0.554-0.317 0.317-0.475 0.713-0.475 1.267 0.040 0.634 0.277 0.99 0.515 1.188l7.604 7.208v0.040zM126.97 23.208c-0.040-0.713-0.277-1.109-0.594-1.386v-0.040l-1.426-1.347-2.178 3.287v-0.040c0.158 1.069 1.069 1.822 2.218 1.782 0.554-0.040 1.109-0.238 1.426-0.713 0.356-0.515 0.594-0.99 0.554-1.545z">
  </path>
  <path class="path6"
    d="M152.198 17.069c1.545 1.545 2.416 3.604 2.535 5.782 0.119 2.416-0.594 4.515-2.218 6.297-1.584 1.743-3.683 2.772-6.020 2.891-0.119 0.040-0.317 0.040-0.515 0.040-4.594 0-8.396-3.644-8.752-8.277-0.119-1.030 0.198-1.941 0.515-2.614 0.158-0.396 0.396-0.752 0.594-1.109l2.851-4.317-1.267-1.267c-1.505-1.505-2.337-3.446-2.455-5.505-0.119-2.218 0.594-4.356 2.139-6.020 1.505-1.703 3.564-2.693 5.743-2.812 3.208-0.158 6.099 1.426 7.683 4.040 0.198 0.277 0.436 0.673 0.594 1.069 0.277 0.673 0.554 1.703 0.594 2.931h-6.614c-0.158-0.832-0.911-1.545-1.861-1.386-0.475 0-0.871 0.158-1.188 0.554-0.277 0.317-0.475 0.713-0.475 1.267 0.040 0.634 0.317 0.99 0.515 1.188l7.604 7.208v0.040zM148.119 23.208c-0.040-0.713-0.317-1.109-0.594-1.386v-0.040l-1.426-1.347-2.178 3.287v-0.040c0.158 1.069 1.069 1.822 2.218 1.782 0.554-0.040 1.109-0.238 1.426-0.713 0.396-0.515 0.594-0.99 0.554-1.545z">
  </path>
  <path class="path7"
    d="M198.020 0.119l-15.881 31.96-6.020-12.198-6.059 12.198-15.762-31.96h7.327l8.436 17.109 2.376-4.752-6.099-12.356h7.327l8.436 17.109 8.515-17.109h7.406z">
  </path>
  <path class="path8"
    d="M191.010 32v-6.772h25.465v6.772h-25.465zM203.327 0.079l13.149 22.931h-8.158l-4.951-8.911-4.594 8.911h-7.723l12.277-22.931z">
  </path>
  <path class="path9"
    d="M235.049 17.069c1.545 1.545 2.416 3.604 2.535 5.782 0.119 2.416-0.594 4.515-2.218 6.297-1.584 1.743-3.683 2.772-6.020 2.891-0.119 0.040-0.317 0.040-0.515 0.040-4.594 0-8.396-3.644-8.752-8.277-0.119-1.030 0.198-1.941 0.515-2.614 0.158-0.396 0.396-0.752 0.594-1.109l2.851-4.317-1.267-1.267c-1.505-1.505-2.337-3.446-2.455-5.505-0.119-2.218 0.594-4.356 2.139-6.020 1.505-1.703 3.564-2.693 5.743-2.812 3.208-0.158 6.099 1.426 7.683 4.040 0.198 0.277 0.436 0.673 0.594 1.069 0.277 0.673 0.554 1.703 0.594 2.931h-6.614c-0.158-0.832-0.911-1.545-1.861-1.386-0.475 0-0.871 0.158-1.188 0.554-0.277 0.317-0.475 0.713-0.475 1.267 0.040 0.634 0.317 0.99 0.515 1.188l7.604 7.208v0.040zM230.97 23.208c-0.040-0.713-0.317-1.109-0.594-1.386v-0.040l-1.426-1.347-2.178 3.287v-0.040c0.158 1.069 1.069 1.822 2.218 1.782 0.554-0.040 1.109-0.238 1.426-0.713 0.396-0.515 0.634-0.99 0.554-1.545z">
  </path>
</svg>