<?xml version="1.0" encoding="utf-8"?>
<!-- Generator: Adobe Illustrator 23.0.6, SVG Export Plug-In . SVG Version: 6.00 Build 0)  -->
<svg version="1.1" id="Layer_1" xmlns="http://www.w3.org/2000/svg" xmlns:xlink="http://www.w3.org/1999/xlink" x="0px" y="0px"
	 viewBox="0 0 3594.9 487.6" style="enable-background:new 0 0 3594.9 487.6;" xml:space="preserve">
<g id="MYBOSS_1">
	<path d="M2.2,486.1v-487L239.9,313L477.6,0.4v485H376.8V302.7L239.9,475.1L103.6,303.3v182.8H2.2z"/>
	<path d="M553.1,351.8L650,196.1L529.2,1.7h117.5l62.7,99.5l62-99.5h118.2l-219,350L553.1,351.8z M529.2,486.1V386h352v100.1H529.2z
		"/>
	<path d="M1306.2,323.4c0,90.4-73.6,162.8-164,162.8H941.3V1.7h196.3c70.4,0,129.2,58.1,129.2,129.8c0,25.2-6.5,47.1-18.7,67.2
		C1285.1,229.5,1306.4,275.2,1306.2,323.4z M1042,102.5V160h94.9c16.2,0,29.1-12.9,29.1-28.4c0-16-12.9-29-28.9-29.1
		c0,0-0.1,0-0.1,0H1042z M1142.2,386c35.5,0,63.3-27.1,63.3-62.7c0-34.6-28.1-62.6-62.7-62.7H1042V386H1142.2z"/>
	<path d="M1357.9,174.2c0-95.6,77.5-173.1,173.1-173.1c94.9,0,172.4,77.5,172.4,173.1s-77.5,173.1-172.4,173.1
		C1435.4,347.3,1357.9,269.8,1357.9,174.2L1357.9,174.2z M1703.5,486.8h-344.9v-102h344.9V486.8z M1459.3,174.2
		c0,39.4,31.6,71,71.7,71c38.8,0,70.4-31.7,70.4-71c0-38.8-31.6-71.7-70.4-71.7C1490.9,102.5,1459.3,135.4,1459.3,174.2
		L1459.3,174.2z"/>
	<path d="M1983.1,258.8c23.3,23.2,36.8,54.9,38.8,87.8c1.9,36.8-9.1,68.5-33.6,95.6c-23.5,26.3-56.5,42.1-91.7,43.9
		c-1.9,0.7-4.5,0.7-7.8,0.7c-69.8,0-127.9-55.5-133-125.9c-1.9-15.5,3.2-29.7,7.8-40c2.6-5.8,5.6-11.4,9-16.8l43.3-65.9l-18.7-18.8
		l-0.6-0.6c-22.4-22.5-35.7-52.4-37.5-84c-1.9-33.6,9-66.5,32.3-91.7c22.2-25.3,53.6-40.7,87.2-42.6c47.3-2.8,92.3,20.8,116.9,61.3
		c3.5,5.1,6.5,10.5,9,16.2c4.5,10.3,8.4,25.8,9,44.6h-100.7c-2.6-12.9-13.6-23.2-28.4-21.3c-7.1,0-13.6,2.6-18.1,8.4
		c-4.5,4.5-7.1,11-7.1,19.4c0.6,9.7,4.5,14.9,7.8,18.1l116.3,111.1V258.8z M1921.1,352.4c-0.6-11-4.5-16.8-9-21.3v-0.7l-22-20.7
		l-32.9,49.7v-0.6c2.6,16.2,16.1,27.8,33.6,27.1c8.4-0.7,16.8-3.9,22-11C1918.5,367.9,1921.7,360.8,1921.1,352.4z"/>
	<path d="M2302.1,258.8c23.3,23.2,36.8,54.9,38.8,87.8c1.9,36.8-9,68.5-33.6,95.6c-23.5,26.3-56.5,42.1-91.7,43.9
		c-1.9,0.7-4.5,0.7-7.8,0.7c-69.8,0-127.9-55.5-133.1-125.9c-1.9-15.5,3.2-29.7,7.8-40c2.6-5.8,5.6-11.4,9-16.8l43.3-65.9
		l-18.7-18.7l-0.6-0.6c-22.4-22.5-35.7-52.4-37.5-84c-1.9-33.6,9-66.5,32.3-91.7c22.2-25.3,53.6-40.7,87.2-42.6
		c47.3-2.8,92.3,20.8,116.9,61.3c3.5,5.1,6.5,10.5,9,16.2c4.5,10.3,8.4,25.8,9,44.6h-100.6c-2.6-12.9-13.6-23.2-28.4-21.3
		c-7.1,0-13.6,2.6-18.1,8.4c-4.5,4.5-7.1,11-7.1,19.4c0.6,9.7,4.5,14.9,7.8,18.1l116.2,111.1V258.8z M2240.1,352.4
		c-0.6-11-4.5-16.8-9-21.3v-0.7l-22-20.7l-32.9,49.7v-0.6c2.6,16.2,16.1,27.8,33.6,27.1c8.4-0.7,16.8-3.9,22-11
		C2237.5,367.9,2240.8,360.8,2240.1,352.4z"/>
	<path d="M2995.8,1.1l-241.6,486.3L2662.5,302l-91.7,185.4L2330.5,1.1h111.7l128.5,260.3L2607,189L2514,1h111.7l128.5,260.3
		L2884,1.1H2995.8z"/>
	<path d="M2886,486.1V382.8h387.5v103.3H2886z M3073.3,0.4l200.2,348.8h-124l-75.6-135.6l-69.8,135.6h-117.5L3073.3,0.4z"/>
	<path d="M3553.1,258.8c23.2,23.2,36.8,54.9,38.8,87.8c1.9,36.8-9,68.5-33.6,95.6c-23.5,26.3-56.5,42.1-91.7,43.9
		c-1.9,0.7-4.5,0.7-7.8,0.7c-69.8,0-127.9-55.5-133.1-125.9c-1.9-15.5,3.2-29.7,7.8-40c2.6-5.8,5.6-11.4,9-16.8l43.3-65.9
		l-18.7-18.7l-0.6-0.6c-22.4-22.5-35.7-52.4-37.5-84c-1.9-33.6,9-66.5,32.3-91.7c22.2-25.3,53.6-40.7,87.2-42.6
		c49.1-2.6,93,22,116.9,61.3c3.5,5.1,6.6,10.5,9,16.2c4.5,10.3,8.4,25.8,9,44.6h-100.7c-2.6-12.9-13.6-23.2-28.4-21.3
		c-7.1,0-13.6,2.6-18.1,8.4c-4.5,4.5-7.1,11-7.1,19.4c0.6,9.7,4.5,14.9,7.8,18.1l116.2,111.1L3553.1,258.8z M3491.1,352.4
		c-0.6-11-4.5-16.8-9-21.3v-0.7l-22-20.7l-32.9,49.7v-0.6c2.6,16.2,16.1,27.8,33.6,27.1c8.4-0.7,16.8-3.9,22-11
		C3488.6,367.9,3491.8,360.8,3491.1,352.4z"/>
</g>
</svg>
