<svg xmlns="http://www.w3.org/2000/svg" viewBox="0 0 5064 1920"><g id="MYBOSS_1"><path d="M736.77,1202.84v-487l237.67,313.88,237.68-312.59v485H1111.36V1019.42L974.44,1191.86,838.16,1020.07v182.77Z"/><path d="M1287.68,1068.5l96.88-155.65-120.77-194.4h117.54L1444,817.91l62-99.46h118.2l-219,350Zm-23.89,134.34v-100.1h352v100.1Z"/><path d="M2040.75,1040.09c0,90.42-73.63,162.75-164,162.75H1675.84V718.45h196.34c70.4,0,129.17,58.13,129.17,129.82,0,25.18-6.46,47.14-18.73,67.17A161.56,161.56,0,0,1,2040.75,1040.09ZM1776.59,819.2v57.48h94.94c16.15,0,29.07-12.91,29.07-28.41a29,29,0,0,0-29.07-29.07Zm100.11,283.54c35.52,0,63.3-27.13,63.3-62.65a62.71,62.71,0,0,0-62.65-62.65H1776.59v125.3Z"/><path d="M2092.41,890.89A173.11,173.11,0,0,1,2265.5,717.8c94.95,0,172.45,77.51,172.45,173.09S2360.45,1064,2265.5,1064A173.1,173.1,0,0,1,2092.41,890.89ZM2438,1203.49H2093.06v-102H2438Zm-244.14-312.6c0,39.4,31.65,71.05,71.69,71.05,38.76,0,70.4-31.65,70.4-71.05,0-38.75-31.64-71.69-70.4-71.69C2225.46,819.2,2193.81,852.14,2193.81,890.89Z"/><path d="M2717.6,975.5c23.26,23.25,36.82,54.9,38.76,87.84,1.93,36.81-9.05,68.46-33.59,95.58a132,132,0,0,1-91.71,43.92c-1.94.65-4.52.65-7.75.65-69.75,0-127.88-55.54-133-125.94-1.94-15.5,3.23-29.71,7.75-40a141.4,141.4,0,0,1,9-16.79l43.28-65.88L2531.6,936.1l-.65-.64a129.19,129.19,0,0,1-37.46-84c-1.94-33.59,9-66.53,32.29-91.72a125.64,125.64,0,0,1,87.2-42.62,128,128,0,0,1,116.9,61.35,96.89,96.89,0,0,1,9,16.15c4.52,10.33,8.39,25.83,9,44.56H2647.21c-2.59-12.91-13.57-23.25-28.42-21.31-7.11,0-13.57,2.58-18.09,8.4-4.52,4.52-7.1,11-7.1,19.37.65,9.69,4.52,14.86,7.75,18.09L2717.6,974.85Zm-62,93.65c-.64-11-4.52-16.79-9-21.31v-.65l-22-20.67-32.94,49.73v-.64c2.59,16.15,16.15,27.77,33.59,27.13,8.39-.65,16.79-3.88,22-11C2653,1084.65,2656.25,1077.55,2655.6,1069.15Z"/><path d="M3036.65,975.5c23.26,23.25,36.82,54.9,38.76,87.84,1.93,36.81-9,68.46-33.59,95.58a132,132,0,0,1-91.71,43.92c-1.94.65-4.52.65-7.75.65-69.75,0-127.88-55.54-133.05-125.94-1.94-15.5,3.23-29.71,7.75-40a141.4,141.4,0,0,1,9-16.79l43.28-65.88-18.73-18.73-.65-.64a129.19,129.19,0,0,1-37.46-84c-1.94-33.59,9-66.53,32.29-91.72a125.64,125.64,0,0,1,87.2-42.62,128,128,0,0,1,116.9,61.35,96.89,96.89,0,0,1,9,16.15c4.52,10.33,8.39,25.83,9,44.56H2966.26c-2.59-12.91-13.57-23.25-28.42-21.31-7.11,0-13.57,2.58-18.09,8.4-4.52,4.52-7.1,11-7.1,19.37.64,9.69,4.52,14.86,7.75,18.09l116.25,111.08Zm-62,93.65c-.64-11-4.52-16.79-9-21.31v-.65l-22-20.67-32.94,49.73v-.64c2.58,16.15,16.15,27.77,33.59,27.13,8.39-.65,16.79-3.88,22-11C2972.07,1084.65,2975.3,1077.55,2974.65,1069.15Z"/><path d="M3730.31,717.8l-241.55,486.33-91.71-185.36-91.71,185.36L3065.08,717.8h111.73l128.53,260.28,36.16-72.33-93-188h111.73l128.53,260.28L3618.58,717.8Z"/><path d="M3620.51,1202.84V1099.51H4008v103.33Zm187.3-485.68L4008,1065.92H3884l-75.56-135.63-69.76,135.63H3621.16Z"/><path d="M4287.68,975.5c23.25,23.25,36.82,54.9,38.75,87.84,1.94,36.81-9,68.46-33.58,95.58a132,132,0,0,1-91.71,43.92c-1.94.65-4.52.65-7.75.65-69.76,0-127.88-55.54-133.05-125.94-1.94-15.5,3.23-29.71,7.75-40a138.56,138.56,0,0,1,9-16.79l43.28-65.88-18.74-18.73-.64-.64a129.14,129.14,0,0,1-37.46-84c-1.94-33.59,9-66.53,32.29-91.72a125.62,125.62,0,0,1,87.19-42.62c49.09-2.59,93,22,116.9,61.35a96.21,96.21,0,0,1,9.05,16.15c4.52,10.33,8.39,25.83,9,44.56H4217.28c-2.58-12.91-13.56-23.25-28.41-21.31-7.11,0-13.57,2.58-18.09,8.4-4.52,4.52-7.1,11-7.1,19.37.64,9.69,4.52,14.86,7.75,18.09l116.25,111.08Zm-62,93.65c-.65-11-4.52-16.79-9-21.31v-.65l-22-20.67-32.94,49.73v-.64c2.58,16.15,16.15,27.77,33.58,27.13,8.4-.65,16.8-3.88,22-11C4223.1,1084.65,4226.33,1077.55,4225.68,1069.15Z"/></g></svg>