<svg width="150" height="35" viewBox="0 0 150 35" fill="none" xmlns="http://www.w3.org/2000/svg">
<path d="M4.55603 14.2006C4.97022 14.2795 5.36468 14.2992 5.75914 14.2992C6.48889 14.2992 7.19892 14.1809 7.90895 13.9048C8.61899 13.6286 9.19095 13.175 9.66431 12.5439C10.1377 11.9127 10.3743 11.0646 10.3743 10.039C10.3743 8.95428 10.0193 8.08646 9.30929 7.45532C8.59926 6.82418 7.51449 6.25221 6.07471 5.73942C5.08855 5.3844 4.33908 5.10828 3.86572 4.8716C3.37265 4.63492 2.99791 4.37852 2.74151 4.08268C2.46538 3.80655 2.34705 3.43182 2.34705 2.99791C2.34705 2.32732 2.58372 1.7948 3.05708 1.42006C3.53043 1.04532 4.1024 0.848093 4.79271 0.848093C5.69997 0.848093 6.52834 1.20311 7.31726 1.87369C8.10618 2.54428 8.89511 3.56988 9.70375 4.93077H9.7432L9.4868 0.276123C9.19095 0.355015 8.89511 0.374738 8.59926 0.374738C8.16535 0.374738 7.692 0.335293 7.13975 0.236677C6.35083 0.138062 5.6408 0.0788925 5.00966 0.0788925C4.26018 0.0788925 3.51071 0.236677 2.80068 0.532523C2.09065 0.828369 1.49895 1.30172 1.0256 1.93286C0.552246 2.564 0.315569 3.37265 0.315569 4.31935C0.315569 5.32523 0.591692 6.1536 1.16366 6.80446C1.73563 7.47505 2.76123 8.04701 4.26018 8.54009C5.20689 8.87538 5.97609 9.17123 6.52834 9.40791C7.08058 9.66431 7.51449 9.94043 7.83006 10.256C8.14563 10.5716 8.32314 10.9463 8.32314 11.3802C8.32314 12.0508 8.10618 12.5833 7.67228 12.9383C7.23837 13.3131 6.68612 13.4906 5.97609 13.4906C5.06883 13.4906 4.26018 13.2539 3.56988 12.7608C2.87957 12.2678 2.3076 11.6958 1.87369 11.0449C1.43978 10.3941 1.00588 9.64458 0.611415 8.81621H0.571969V14.2598C1.00588 14.0231 1.55812 13.885 2.18926 13.885C2.48511 13.885 3.03735 13.9639 3.82628 14.0823C3.90517 14.102 4.14185 14.1414 4.55603 14.2006Z" fill="#D04B4B"/>
<path d="M24.1683 1.26228C24.4247 0.848093 24.7797 0.532523 25.2334 0.31557V0.276123H19.2178V0.31557C19.6715 0.532523 20.0265 0.848093 20.3026 1.26228C20.559 1.69618 20.6971 2.16954 20.6971 2.68234V6.21277H15.7466V2.68234C15.7466 2.16954 15.8649 1.69618 16.141 1.26228C16.3974 0.848093 16.7524 0.532523 17.2061 0.31557V0.276123H11.1905V0.31557C11.6442 0.532523 11.9992 0.848093 12.2753 1.26228C12.5317 1.69618 12.6698 2.16954 12.6698 2.68234V11.6761C12.6698 12.2086 12.5317 12.6819 12.2753 13.0961C11.9992 13.53 11.6442 13.8456 11.1905 14.0428V14.0823H17.2061V14.0428C16.7524 13.8456 16.3974 13.53 16.141 13.0961C15.8649 12.6819 15.7466 12.2086 15.7466 11.6761V6.94252H20.6971V11.6761C20.6971 12.2086 20.559 12.6819 20.3026 13.0961C20.0265 13.53 19.6715 13.8456 19.2178 14.0428V14.0823H25.2334V14.0428C24.7797 13.8456 24.4247 13.53 24.1683 13.0961C23.8922 12.6819 23.7739 12.2086 23.7739 11.6761V2.68234C23.7739 2.16954 23.8922 1.69618 24.1683 1.26228Z" fill="#D04B4B"/>
<path d="M29.8889 13.5498C30.954 14.0823 31.9796 14.3387 32.9855 14.3387C34.0702 14.3387 35.1353 14.0626 36.1806 13.5103C37.2259 12.9581 38.0937 12.1297 38.7643 11.0449C39.4349 9.96015 39.7702 8.65843 39.7702 7.13975C39.7702 5.60135 39.3955 4.29963 38.6854 3.21486C37.9754 2.14982 37.0879 1.34117 36.0228 0.808646C34.9578 0.276123 33.9322 0 32.9263 0C31.8612 0 30.7962 0.295846 29.7509 0.848093C28.7055 1.40034 27.8575 2.22871 27.1869 3.31348C26.5163 4.39825 26.181 5.69997 26.181 7.19892C26.181 8.73732 26.536 10.0588 27.246 11.1238C27.9561 12.2086 28.8239 13.0172 29.8889 13.5498ZM34.938 13.0567C34.5239 13.4511 34.1097 13.6286 33.6955 13.6286C33.0644 13.6286 32.4332 13.2934 31.8021 12.5833C31.1709 11.893 30.6384 10.9463 30.2242 9.76292C29.81 8.57954 29.6128 7.29754 29.6128 5.8972C29.6128 4.77298 29.7311 3.82628 30.0073 3.03735C30.2637 2.24843 30.599 1.67646 30.9934 1.282C31.3879 0.907261 31.8021 0.710031 32.236 0.710031C32.8671 0.710031 33.4983 1.06505 34.1294 1.75535C34.7605 2.46538 35.2931 3.39237 35.7072 4.57575C36.1214 5.75914 36.3384 7.06086 36.3384 8.44148C36.3384 9.56569 36.2003 10.5124 35.9439 11.3013C35.6678 12.0902 35.3325 12.6622 34.938 13.0567Z" fill="#D04B4B"/>
<path d="M49.6519 0.710031C49.0011 0.433908 48.3107 0.276123 47.6007 0.276123H40.7174V0.31557C41.171 0.532523 41.526 0.848093 41.8021 1.26228C42.0585 1.69618 42.1966 2.16954 42.1966 2.68234V11.6761C42.1966 12.2086 42.0585 12.6819 41.8021 13.0961C41.526 13.53 41.171 13.8456 40.7174 14.0428V14.0823H46.7526V14.0428C46.299 13.8456 45.944 13.53 45.6876 13.0961C45.4115 12.6819 45.2931 12.2086 45.2931 11.6761V7.63283C45.7665 7.71172 46.299 7.73145 46.8907 7.73145C48.508 7.73145 49.7308 7.39615 50.5592 6.72557C51.3876 6.05498 51.8017 5.16745 51.8017 4.02351C51.8017 3.23458 51.6045 2.564 51.21 1.99203C50.8156 1.43978 50.2831 1.00588 49.6519 0.710031ZM47.9163 6.33111C47.4824 6.76501 46.8907 6.98197 46.1412 6.98197C45.8454 6.98197 45.5692 6.96224 45.2931 6.9228V0.926984H45.4312C46.0229 0.926984 46.5554 1.08477 47.0288 1.36089C47.5021 1.63702 47.8966 2.03148 48.1727 2.52455C48.4488 3.03735 48.5869 3.5896 48.5869 4.22074C48.5869 5.18717 48.3502 5.8972 47.9163 6.33111Z" fill="#D04B4B"/>
<path d="M8.93455 20.4331C8.28369 20.157 7.59338 19.9992 6.88335 19.9992H0V20.0386C0.453631 20.2556 0.808646 20.5712 1.08477 20.9854C1.34117 21.4193 1.47923 21.8926 1.47923 22.4054V31.3991C1.47923 31.9317 1.34117 32.405 1.08477 32.8192C0.808646 33.2531 0.453631 33.5687 0 33.7659V33.8054H6.03526V33.7659C5.58163 33.5687 5.22662 33.2531 4.97021 32.8192C4.69409 32.405 4.57575 31.9317 4.57575 31.3991V27.3559C5.04911 27.4348 5.58163 27.4545 6.17332 27.4545C7.79062 27.4545 9.01345 27.1192 9.84181 26.4486C10.6702 25.7781 11.0844 24.8905 11.0844 23.7466C11.0844 22.9577 10.8871 22.2871 10.4927 21.7151C10.0982 21.1629 9.56569 20.729 8.93455 20.4331ZM7.19892 26.0542C6.76502 26.4881 6.17332 26.705 5.42385 26.705C5.128 26.705 4.85188 26.6853 4.57575 26.6459V20.6501H4.71381C5.30551 20.6501 5.83803 20.8078 6.31138 21.084C6.78474 21.3601 7.1792 21.7546 7.45532 22.2476C7.73145 22.7604 7.86951 23.3127 7.86951 23.9438C7.86951 24.9102 7.63283 25.6203 7.19892 26.0542Z" fill="#D04B4B"/>
<path d="M11.6721 33.7659V33.8054H17.7073V33.7659C17.2537 33.5687 16.8987 33.2531 16.6423 32.8192C16.3661 32.405 16.2478 31.9317 16.2478 31.3991V22.4054C16.2478 21.8926 16.3661 21.4193 16.6423 20.9854C16.8987 20.5712 17.2537 20.2556 17.7073 20.0386V19.9992H11.6721V20.0386C12.1257 20.2556 12.4807 20.5712 12.7568 20.9854C13.0132 21.4193 13.1513 21.8926 13.1513 22.4054V31.3991C13.1513 31.9317 13.0132 32.405 12.7568 32.8192C12.4807 33.2531 12.1257 33.5687 11.6721 33.7659Z" fill="#D04B4B"/>
<path d="M18.4133 33.7659V33.8054H29.123L29.4188 29.2296H29.3794C28.9257 30.4919 28.4129 31.4386 27.8212 32.0894C27.2296 32.76 26.4801 33.0756 25.5728 33.0756H22.9694V26.6656H23.7977C24.4486 26.6656 24.9614 26.8628 25.3361 27.2376C25.6912 27.6123 26.0462 28.2434 26.3617 29.1113H26.4012V23.9044H26.3617C26.0067 24.6736 25.6517 25.2061 25.2967 25.5019C24.9417 25.7978 24.4486 25.9358 23.7977 25.9358H22.9694V20.729H25.5728C26.3617 20.729 27.0323 21.0248 27.5846 21.6165C28.1368 22.2082 28.6299 23.076 29.0441 24.2199H29.0835L28.8074 19.9992H18.4133V20.0386C18.867 20.2556 19.222 20.5712 19.4981 20.9854C19.7545 21.4193 19.8926 21.8926 19.8926 22.4054V31.3991C19.8926 31.9317 19.7545 32.405 19.4981 32.8192C19.222 33.2531 18.867 33.5687 18.4133 33.7659Z" fill="#D04B4B"/>
<path d="M46.2748 20.9854C46.5312 20.5712 46.8862 20.2556 47.3399 20.0386V19.9992H42.8035L38.8984 29.131L34.934 19.9992H30.2202V20.0386C30.6739 20.2556 31.0289 20.5712 31.305 20.9854C31.5614 21.4193 31.6995 21.8926 31.6995 22.4054V31.3991C31.6995 31.9317 31.5614 32.405 31.305 32.8192C31.0289 33.2531 30.6739 33.5687 30.2202 33.7659V33.8054H34.1057V33.7659C33.6126 33.5687 33.2379 33.2531 32.9617 32.8192C32.6856 32.405 32.5673 31.9317 32.5673 31.3991V22.4054L37.6558 33.9631H37.6953L42.7838 22.1687V31.3991C42.7838 31.9317 42.6458 32.405 42.3894 32.8192C42.1132 33.2531 41.7582 33.5687 41.3046 33.7659V33.8054H47.3399V33.7659C46.8862 33.5687 46.5312 33.2531 46.2748 32.8192C45.9987 32.405 45.8803 31.9317 45.8803 31.3991V22.4054C45.8803 21.8926 45.9987 21.4193 46.2748 20.9854Z" fill="#D04B4B"/>
<path d="M52.0004 33.2728C53.0654 33.8054 54.091 34.0618 55.0969 34.0618C56.1816 34.0618 57.2467 33.7856 58.292 33.2334C59.3373 32.6811 60.2052 31.8528 60.8757 30.768C61.5463 29.6832 61.8816 28.3815 61.8816 26.8628C61.8816 25.3244 61.5069 24.0227 60.7968 22.9379C60.0868 21.8729 59.1993 21.0642 58.1342 20.5317C57.0692 19.9992 56.0436 19.7231 55.0377 19.7231C53.9727 19.7231 52.9076 20.0189 51.8623 20.5712C50.817 21.1234 49.9689 21.9518 49.2983 23.0366C48.6277 24.1213 48.2924 25.423 48.2924 26.922C48.2924 28.4604 48.6474 29.7818 49.3575 30.8469C50.0675 31.9317 50.9353 32.7403 52.0004 33.2728ZM57.0495 32.7798C56.6353 33.1742 56.2211 33.3517 55.8069 33.3517C55.1758 33.3517 54.5446 33.0164 53.9135 32.3064C53.2823 31.6161 52.7498 30.6694 52.3356 29.486C51.9215 28.3026 51.7242 27.0206 51.7242 25.6203C51.7242 24.4961 51.8426 23.5494 52.1187 22.7604C52.3751 21.9715 52.7104 21.3995 53.1048 21.0051C53.4993 20.6303 53.9135 20.4331 54.3474 20.4331C54.9785 20.4331 55.6097 20.7881 56.2408 21.4784C56.872 22.1885 57.4045 23.1154 57.8187 24.2988C58.2328 25.4822 58.4498 26.7839 58.4498 28.1645C58.4498 29.2888 58.3117 30.2355 58.0553 31.0244C57.7792 31.8133 57.4439 32.3853 57.0495 32.7798Z" fill="#D04B4B"/>
<path d="M76.3785 19.9992H72.572V20.0386C73.0256 20.2556 73.3806 20.5712 73.6568 20.9854C73.9132 21.4193 74.0512 21.8926 74.0512 22.4054V28.2434L67.1087 19.9992H62.8288V20.0386C63.2824 20.2556 63.6374 20.5712 63.9136 20.9854C64.17 21.4193 64.308 21.8926 64.308 22.4054V31.3991C64.308 31.9317 64.17 32.405 63.9136 32.8192C63.6374 33.2531 63.2824 33.5687 62.8288 33.7659V33.8054H66.6551V33.7659C66.1817 33.5687 65.8267 33.2531 65.5703 32.8192C65.2942 32.405 65.1758 31.9317 65.1758 31.3991V22.5829L74.8401 34.0815H74.8993V22.4054C74.8993 21.8926 75.0176 21.4193 75.2938 20.9854C75.5502 20.5712 75.9052 20.2556 76.3785 20.0386V19.9992Z" fill="#D04B4B"/>
<path d="M80.0618 33.7659V33.8054H86.0971V33.7659C85.6434 33.5687 85.2884 33.2531 85.032 32.8192C84.7559 32.405 84.6376 31.9317 84.6376 31.3991V20.729H85.8407C86.6099 20.729 87.2607 20.9656 87.7735 21.3995C88.2863 21.8334 88.7794 22.5632 89.2528 23.5888H89.2922L88.9569 19.9992H77.202L76.8864 23.5888H76.9258C77.3795 22.5632 77.8726 21.8334 78.3854 21.3995C78.8982 20.9656 79.549 20.729 80.3182 20.729H81.541V31.3991C81.541 31.9317 81.403 32.405 81.1466 32.8192C80.8705 33.2531 80.5154 33.5687 80.0618 33.7659Z" fill="#D04B4B"/>
<path d="M89.8902 33.7659V33.8054H100.6L100.896 29.2296H100.856C100.403 30.4919 99.8898 31.4386 99.2981 32.0894C98.7064 32.76 97.957 33.0756 97.0497 33.0756H94.4463V26.6656H95.2746C95.9255 26.6656 96.4383 26.8628 96.813 27.2376C97.168 27.6123 97.5231 28.2434 97.8386 29.1113H97.8781V23.9044H97.8386C97.4836 24.6736 97.1286 25.2061 96.7736 25.5019C96.4186 25.7978 95.9255 25.9358 95.2746 25.9358H94.4463V20.729H97.0497C97.8386 20.729 98.5092 21.0248 99.0615 21.6165C99.6137 22.2082 100.107 23.076 100.521 24.2199H100.56L100.284 19.9992H89.8902V20.0386C90.3439 20.2556 90.6989 20.5712 90.975 20.9854C91.2314 21.4193 91.3695 21.8926 91.3695 22.4054V31.3991C91.3695 31.9317 91.2314 32.405 90.975 32.8192C90.6989 33.2531 90.3439 33.5687 89.8902 33.7659Z" fill="#D04B4B"/>
<path d="M102.151 33.5884C102.466 33.904 102.841 34.042 103.295 34.042C103.729 34.042 104.084 33.904 104.399 33.5884C104.715 33.2728 104.873 32.8981 104.873 32.4445C104.873 32.0106 104.715 31.6555 104.399 31.34C104.084 31.0244 103.729 30.8666 103.295 30.8666C102.841 30.8666 102.466 31.0244 102.151 31.34C101.835 31.6555 101.697 32.0106 101.697 32.4445C101.697 32.8981 101.835 33.2728 102.151 33.5884Z" fill="#D04B4B"/>
<path d="M109.296 33.2334C110.282 33.7856 111.268 34.042 112.215 34.042C113.536 34.042 114.641 33.6278 115.528 32.76C116.416 31.9119 117.086 30.7483 117.54 29.2493H117.501C116.85 30.0777 116.199 30.6497 115.568 30.9849C114.917 31.3202 114.246 31.478 113.536 31.478C112.688 31.478 111.919 31.2413 111.248 30.768C110.558 30.2946 110.025 29.5846 109.631 28.6774C109.237 27.7701 109.039 26.6853 109.039 25.4428C109.039 24.2988 109.177 23.3718 109.473 22.6224C109.749 21.8729 110.144 21.3404 110.617 20.9854C111.091 20.6501 111.623 20.4726 112.195 20.4726C113.773 20.4726 115.39 21.8532 117.047 24.575H117.086L116.81 19.8414C116.574 19.9203 116.278 19.94 115.883 19.94C115.528 19.94 115.075 19.9203 114.503 19.8611C113.97 19.802 113.418 19.7625 112.826 19.7625C111.643 19.7625 110.499 20.0386 109.434 20.5909C108.369 21.1431 107.501 21.9518 106.83 23.0366C106.16 24.1213 105.824 25.423 105.824 26.922C105.824 28.421 106.14 29.7227 106.811 30.7877C107.481 31.8725 108.31 32.6811 109.296 33.2334Z" fill="#D04B4B"/>
<path d="M122.052 33.2728C123.117 33.8054 124.143 34.0618 125.148 34.0618C126.233 34.0618 127.298 33.7856 128.344 33.2334C129.389 32.6811 130.257 31.8528 130.927 30.768C131.598 29.6832 131.933 28.3815 131.933 26.8628C131.933 25.3244 131.558 24.0227 130.848 22.9379C130.138 21.8729 129.251 21.0642 128.186 20.5317C127.121 19.9992 126.095 19.7231 125.089 19.7231C124.024 19.7231 122.959 20.0189 121.914 20.5712C120.869 21.1234 120.02 21.9518 119.35 23.0366C118.679 24.1213 118.344 25.423 118.344 26.922C118.344 28.4604 118.699 29.7818 119.409 30.8469C120.119 31.9317 120.987 32.7403 122.052 33.2728ZM127.101 32.7798C126.687 33.1742 126.273 33.3517 125.858 33.3517C125.227 33.3517 124.596 33.0164 123.965 32.3064C123.334 31.6161 122.801 30.6694 122.387 29.486C121.973 28.3026 121.776 27.0206 121.776 25.6203C121.776 24.4961 121.894 23.5494 122.17 22.7604C122.427 21.9715 122.762 21.3995 123.156 21.0051C123.551 20.6303 123.965 20.4331 124.399 20.4331C125.03 20.4331 125.661 20.7881 126.292 21.4784C126.924 22.1885 127.456 23.1154 127.87 24.2988C128.284 25.4822 128.501 26.7839 128.501 28.1645C128.501 29.2888 128.363 30.2355 128.107 31.0244C127.831 31.8133 127.496 32.3853 127.101 32.7798Z" fill="#D04B4B"/>
<path d="M148.935 20.9854C149.191 20.5712 149.546 20.2556 150 20.0386V19.9992H145.464L141.559 29.131L137.594 19.9992H132.88V20.0386C133.334 20.2556 133.689 20.5712 133.965 20.9854C134.222 21.4193 134.36 21.8926 134.36 22.4054V31.3991C134.36 31.9317 134.222 32.405 133.965 32.8192C133.689 33.2531 133.334 33.5687 132.88 33.7659V33.8054H136.766V33.7659C136.273 33.5687 135.898 33.2531 135.622 32.8192C135.346 32.405 135.227 31.9317 135.227 31.3991V22.4054L140.316 33.9631H140.355L145.444 22.1687V31.3991C145.444 31.9317 145.306 32.405 145.049 32.8192C144.773 33.2531 144.418 33.5687 143.965 33.7659V33.8054H150V33.7659C149.546 33.5687 149.191 33.2531 148.935 32.8192C148.659 32.405 148.54 31.9317 148.54 31.3991V22.4054C148.54 21.8926 148.659 21.4193 148.935 20.9854Z" fill="#D04B4B"/>
</svg>
