<?xml version="1.0" encoding="utf-8"?>
<!-- Generator: Adobe Illustrator 23.0.6, SVG Export Plug-In . SVG Version: 6.00 Build 0)  -->
<svg version="1.1" id="Livello_1" xmlns="http://www.w3.org/2000/svg" xmlns:xlink="http://www.w3.org/1999/xlink" x="0px" y="0px"
	 viewBox="0 0 474.2 108.3" style="enable-background:new 0 0 474.2 108.3;" xml:space="preserve">
<style type="text/css">
	.st0{fill:#1D1D1B;}
</style>
<path class="st0" d="M13.5,44.3H0.8v-0.8l4.8-8.2h7.9V20.9l24-12h1.4v26.3h20.5v0.8l-4.8,8.2H39v37.3c0,2.8,0.6,5,1.8,6.5
	c1.2,1.5,3.1,2.4,5,2.3c2.3-0.1,4.6-0.8,6.4-2.2c2.3-1.7,4.3-3.8,5.9-6.3l1.4,0.8c-2.1,8.3-5.2,14.5-9.5,18.7
	c-4.2,4.1-9.9,6.4-15.8,6.2c-6.3,0-11.3-1.9-15.1-5.7c-3.7-3.8-5.6-9-5.6-15.7V44.3z"/>
<path class="st0" d="M105.3,43.7l35.1-10.2v59.4l9.9,12.1v0.8h-34.8V92.4h-0.6c-3.2,4.5-7.2,8.4-11.8,11.5
	c-3.8,2.4-8.2,3.8-12.7,3.8c-5.7,0-10.1-2-13.4-5.9s-5-9.4-5-16.3V58.3l-9.6-13.7v-0.8l35.1-10.2v47.2c0,3.2,0.6,5.6,1.8,7.2
	c1.3,1.6,3.2,2.5,5.3,2.4c1.8-0.1,3.5-0.5,5.1-1.2c1.9-0.8,3.7-1.9,5.2-3.2V58.3l-9.6-13.7V43.7z"/>
<path class="st0" d="M190.5,55.2v37.8l7.1,12.2v0.8h-42.4v-0.8l9.9-12.2V58.3l-9.6-13.7v-0.8L190,33.4v15.4h0.6
	c3.2-4.6,7.3-8.5,12-11.5c4-2.5,8.5-3.8,13.2-3.8c5.8,0,10.5,2,13.9,5.9s5.2,9.4,5.2,16.3v37.2l9.9,12.1v0.8h-42.4v-0.8l7.1-12.2
	V60.4c0-3.1-0.7-5.5-2-7.2c-1.4-1.7-3.6-2.6-5.8-2.5c-1.9,0-3.9,0.4-5.6,1.2C194,52.8,192.2,53.9,190.5,55.2"/>
<path class="st0" d="M287.5,90.7c1.3,0,2.6-0.3,3.8-0.8c1.3-0.6,2.4-1.5,3.4-2.6V50.1c-1.1-3-2.9-5.8-5.2-8.1
	c-1.8-1.8-4.2-2.9-6.7-3c-3.2,0-5.6,1.8-7.3,5.4c-1.7,3.6-2.5,8.9-2.5,15.9c0,9.1,1.3,16.4,4,21.9S283.3,90.6,287.5,90.7
	 M295.3,93.8h-0.6c-2.8,4.8-5.9,8.3-9.2,10.5c-3.3,2.2-7.3,3.4-11.3,3.3c-7.9,0-14.4-3.3-19.5-9.9c-5.1-6.6-7.6-15.2-7.6-25.7
	c0-12,3.3-21.4,9.9-28.2c6.6-6.8,15.7-10.2,27.4-10.3c1.7,0,3.3,0.1,5,0.3c1.7,0.2,3.5,0.4,5.3,0.7v-9.4l-9.6-13.7v-0.9l35.1-10.3
	v92.7l9.9,12.2v0.8h-34.8L295.3,93.8z"/>
<path class="st0" d="M369.7,55.6h0.6c2.5-7,5.8-12.4,10.1-16.3c3.9-3.7,9.1-5.8,14.5-5.8l-1.5,23.8c-4.4,0-8.8,0.4-13.2,1.1
	c-3.4,0.6-6.7,1.5-9.8,2.9v31.4l11.9,12.4v0.8h-47.2v-0.8l9.9-12.2V58.3l-9.6-13.7v-0.8l34.5-10.3L369.7,55.6z"/>
<path class="st0" d="M430.7,93.1c1.4,0,2.8-0.3,4-0.9c1.3-0.7,2.5-1.6,3.4-2.8V66.8c-5.9,1.9-9.9,3.9-12.2,6.1
	c-2.3,2.2-3.4,5.1-3.4,8.9c0,3.5,0.7,6.2,2.2,8.3C426.1,92,428.4,93.1,430.7,93.1 M438.7,94.6h-0.6c-2.7,3.9-6.2,7.3-10.3,9.7
	c-3.8,2.2-8.1,3.4-12.4,3.4c-5.6,0-10-1.6-13.3-4.7c-3.3-3.2-5-7.4-5-12.8c0-6.4,3.3-11.8,9.8-16.1c6.6-4.3,16.9-8.3,31.2-12V51
	c0-3.4-0.6-5.9-1.7-7.6c-1.1-1.7-3.1-2.7-5.1-2.5c-3.7,0-7.9,2.1-12.6,6.4s-9.3,10.2-13.7,17.9h-1.5V35.2H444
	c10.8,0,19.5,8.7,19.5,19.5c0,0,0,0,0,0v38.2l9.9,12.2v0.8h-34.8L438.7,94.6z"/>
</svg>
