<svg id="Livello_1" data-name="Livello 1" xmlns="http://www.w3.org/2000/svg" viewBox="0 0 497.48 129.73"><defs><style>.cls-1{fill:#1d1d1b;}</style></defs><path class="cls-1" d="M25.14,55.2H12.41v-.85l4.81-8.2h7.92V31.82l24-12h1.41V46.15H71V47l-4.8,8.2H50.59V92.54c0,2.82.59,5,1.77,6.5a6,6,0,0,0,5,2.26,11.29,11.29,0,0,0,6.44-2.19,22.52,22.52,0,0,0,5.86-6.29l1.42.85Q68,106.1,61.62,112.33a21.73,21.73,0,0,1-15.83,6.22q-9.48,0-15.07-5.65T25.14,97.2Z"/><path class="cls-1" d="M116.93,54.64,152,44.45v59.4L161.9,116v.85H127.11V103.28h-.57a44.13,44.13,0,0,1-11.8,11.46,23.78,23.78,0,0,1-12.66,3.82q-8.49,0-13.43-5.94t-5-16.26V69.2L74.08,55.49v-.85l35.07-10.19V91.69c0,3.2.59,5.61,1.77,7.21a6.15,6.15,0,0,0,5.3,2.4,13.23,13.23,0,0,0,5.09-1.2,21.1,21.1,0,0,0,5.23-3.18V69.2l-9.61-13.71Z"/><path class="cls-1" d="M202.18,66.09v37.76L209.25,116v.85H166.83V116l9.9-12.16V69.2l-9.62-13.72v-.84l34.51-10.33V59.73h.56a42.75,42.75,0,0,1,12-11.46,25.3,25.3,0,0,1,13.16-3.82q8.76,0,13.92,5.94t5.16,16.27v37.19L256.35,116v.85H213.92V116L221,103.85V71.33q0-4.68-2-7.15a7,7,0,0,0-5.8-2.47,15.07,15.07,0,0,0-5.65,1.2,20.59,20.59,0,0,0-5.38,3.18"/><path class="cls-1" d="M299.16,101.58a9.08,9.08,0,0,0,3.82-.84,10.92,10.92,0,0,0,3.4-2.55V61a21.62,21.62,0,0,0-5.17-8.06,9.75,9.75,0,0,0-6.71-3q-4.81,0-7.29,5.44t-2.47,15.91q0,13.58,4,21.92t10.46,8.34m7.78,3.12h-.56q-4.25,7.2-9.2,10.53a19.78,19.78,0,0,1-11.31,3.32q-11.88,0-19.51-9.89t-7.64-25.74q0-18,9.9-28.21t27.43-10.26a46.42,46.42,0,0,1,5,.29c1.74.19,3.51.42,5.31.71V36.06l-9.62-13.71V21.5l35.07-10.32v92.67l9.9,12.16v.85H306.94Z"/><path class="cls-1" d="M381.36,66.52h.57Q385.61,56.05,392,50.25a21.12,21.12,0,0,1,14.5-5.8L405,68.21a89.73,89.73,0,0,0-13.22,1.06,42.91,42.91,0,0,0-9.83,2.9v31.39L393.81,116v.85H346.58V116l9.89-12.16V69.2l-9.61-13.72v-.84l34.5-10.33Z"/><path class="cls-1" d="M442.37,104a8.67,8.67,0,0,0,4-.92,10.81,10.81,0,0,0,3.39-2.76V77.69q-8.78,2.82-12.16,6.08t-3.39,8.91c0,3.49.73,6.24,2.19,8.27a7,7,0,0,0,6,3m7.92,1.55h-.57a32.73,32.73,0,0,1-10.32,9.69A24.6,24.6,0,0,1,427,118.55q-8.34,0-13.29-4.73t-5-12.8q0-9.61,9.83-16.12t31.18-12v-11c0-3.4-.57-5.94-1.7-7.64a5.68,5.68,0,0,0-5.09-2.54q-5.51,0-12.58,6.43T416.63,76h-1.55V46.15h40.55A19.54,19.54,0,0,1,475.18,65.7v38.15L485.07,116v.85H450.29Z"/></svg>