<?xml version="1.0" standalone="no"?>
<!DOCTYPE svg PUBLIC "-//W3C//DTD SVG 20010904//EN"
 "http://www.w3.org/TR/2001/REC-SVG-20010904/DTD/svg10.dtd">
<svg version="1.0" xmlns="http://www.w3.org/2000/svg"
 width="925.000000pt" height="242.000000pt" viewBox="0 0 925.000000 242.000000"
 preserveAspectRatio="xMidYMid meet">

<g transform="translate(0.000000,242.000000) scale(0.100000,-0.100000)"
fill="#000000" stroke="none">
<path d="M3714 2401 c-80 -37 -133 -135 -120 -223 19 -127 130 -205 255 -180
120 25 191 138 161 260 -23 96 -106 162 -205 162 -27 0 -68 -9 -91 -19z"/>
<path d="M4845 2402 c-137 -66 -168 -240 -61 -347 73 -73 178 -83 269 -25 120
76 120 271 -1 354 -55 39 -146 47 -207 18z"/>
<path d="M3540 1699 c-194 -22 -371 -111 -511 -256 -161 -165 -239 -358 -239
-586 0 -233 72 -419 225 -585 330 -357 899 -364 1242 -15 74 74 120 140 107
153 -5 4 -66 42 -136 84 l-128 75 -30 -44 c-123 -179 -381 -259 -598 -184
-157 54 -295 203 -338 363 -8 28 -14 94 -14 147 0 118 22 199 80 288 153 237
427 315 674 193 75 -38 171 -118 198 -166 5 -9 14 -16 20 -16 24 0 278 153
271 164 -29 49 -120 149 -183 199 -180 144 -415 212 -640 186z"/>
<path d="M6404 1700 c-128 -18 -223 -55 -347 -138 l-76 -50 -3 82 -3 81 -162
3 -163 2 0 -820 0 -820 163 2 162 3 5 490 c5 464 7 493 27 552 54 160 160 259
314 293 81 18 230 9 301 -19 107 -41 186 -136 225 -267 15 -51 17 -123 21
-556 l3 -498 165 0 165 0 -3 563 c-4 625 -3 614 -76 767 -48 103 -148 203
-252 253 -133 64 -329 96 -466 77z"/>
<path d="M8320 1700 c-203 -24 -368 -106 -507 -254 -145 -152 -220 -333 -230
-556 -12 -264 76 -484 266 -662 159 -149 319 -215 547 -225 194 -9 361 35 515
136 70 46 209 179 209 200 0 5 -51 48 -114 96 l-113 86 -59 -58 c-167 -163
-436 -208 -642 -107 -89 44 -186 143 -232 238 -21 45 -42 96 -45 114 l-7 32
665 0 666 0 7 57 c8 70 -9 218 -37 309 -30 98 -100 229 -164 307 -168 203
-458 318 -725 287z m201 -310 c82 -15 193 -74 254 -135 52 -52 116 -164 129
-227 l6 -28 -495 0 -496 0 6 23 c3 12 22 55 42 96 99 206 320 314 554 271z"/>
<path d="M10 1668 c0 -7 150 -375 333 -818 l333 -805 178 0 179 0 333 814
c184 448 334 815 334 817 0 2 -80 4 -179 4 l-178 0 -228 -562 c-126 -310 -237
-583 -248 -608 l-19 -45 -242 605 -242 605 -177 3 c-138 2 -177 0 -177 -10z"/>
<path d="M2045 1668 c-3 -7 -4 -375 -3 -818 l3 -805 165 0 165 0 0 815 0 815
-163 3 c-124 2 -164 0 -167 -10z"/>
<path d="M4775 1668 c-3 -7 -4 -375 -3 -818 l3 -805 165 0 165 0 0 815 0 815
-163 3 c-124 2 -164 0 -167 -10z"/>
</g>
</svg>
